#!OML:ASF F:\VICON\USERDATA\INSTALL\rory3\rory3.ASF
:FULLY-SPECIFIED
:DEGREES
2366
root -2.47095 18.3985 1.99045 -365.444 172.002 -4.0654
lowerback 3.90295 7.56037 7.09331
upperback 1.49873 10.4637 2.10459
thorax 0.243929 5.30863 -2.01821
lowerneck -10.7692 6.43434 2.65767
upperneck 33.3387 4.5705 5.35627
head 12.838 2.15785 2.04665
rclavicle -7.81224e-014 7.95139e-015
rhumerus 404.614 40.7336 -411.739
rradius 61.2776
rwrist 42.5819
rhand -48.3883 -6.35224
rfingers 7.12502
rthumb -21.0415 -35.2307
lclavicle -7.81224e-014 7.95139e-015
lhumerus -2.67695 10.8225 41.699
lradius 79.8773
lwrist -33.0582
lhand -46.2892 56.6901
lfingers 7.12502
lthumb -19.0238 -274.22
rfemur 3.88367 3.70656 12.7626
rtibia 35.5822
rfoot -31.0408 -39.8027
rtoes -1.27349
lfemur -10.1712 -11.3841 -16.7749
ltibia 23.0083
lfoot -7.53995 0.818829
ltoes -7.57861
2367
root -2.50694 18.4077 1.95146 -365.49 172.438 -4.04941
lowerback 3.8101 7.5842 7.14269
upperback 1.45886 10.4822 1.98858
thorax 0.286597 5.3163 -2.14843
lowerneck -10.6222 6.38241 2.69093
upperneck 33.3587 4.40036 5.55071
head 12.8158 2.10253 2.08684
rclavicle -1.58034e-014 -2.8625e-014
rhumerus 405.056 40.075 -412.575
rradius 59.5428
rwrist 42.2846
rhand -47.8714 -6.49217
rfingers 7.12502
rthumb -20.5449 -35.425
lclavicle -1.58034e-014 -2.8625e-014
lhumerus -1.02243 10.6271 41.6279
lradius 77.6275
lwrist -32.5845
lhand -46.2315 56.9958
lfingers 7.12502
lthumb -18.9683 -273.909
rfemur 3.66211 3.30651 12.4961
rtibia 36.3745
rfoot -29.4078 -39.7644
rtoes -2.62464
lfemur -9.99041 -11.4986 -16.9452
ltibia 22.8306
lfoot -7.62608 0.400607
ltoes -7.47228
2368
root -2.54297 18.4147 1.91174 -365.629 172.781 -4.09183
lowerback 3.83682 7.60014 7.10646
upperback 1.4746 10.4988 1.90974
thorax 0.298294 5.32395 -2.21081
lowerneck -10.6095 6.35887 2.7635
upperneck 33.4308 4.3085 5.61479
head 12.848 2.07452 2.08818
rclavicle -1.18277e-013 -2.38542e-014
rhumerus 405.499 39.4795 -413.262
rradius 57.9434
rwrist 42.1156
rhand -47.7928 -6.61342
rfingers 7.12502
rthumb -20.4693 -35.5544
lclavicle -1.18277e-013 -2.38542e-014
lhumerus 0.362917 10.4232 41.5039
lradius 75.5976
lwrist -32.1223
lhand -45.9732 56.8639
lfingers 7.12502
lthumb -18.7199 -274.017
rfemur 3.47288 2.94905 12.1409
rtibia 37.2461
rfoot -27.4263 -39.8182
rtoes -2.71472
lfemur -9.72846 -11.5587 -17.1747
ltibia 22.6671
lfoot -7.79654 -0.0340601
ltoes -5.87525
2369
root -2.57662 18.422 1.87537 -365.787 173.189 -4.22649
lowerback 3.94554 7.57691 6.94943
upperback 1.49536 10.4642 1.80542
thorax 0.248623 5.30331 -2.24905
lowerneck -10.6882 6.37294 2.80026
upperneck 33.5105 4.26024 5.75208
head 12.8985 2.07467 2.13398
rclavicle 3.23025e-014 2.54444e-014
rhumerus 405.844 38.8789 -414.072
rradius 56.4033
rwrist 42.2039
rhand -47.9309 -5.97614
rfingers 7.12502
rthumb -20.602 -34.9028
lclavicle 3.23025e-014 2.54444e-014
lhumerus 1.61449 10.2215 41.3488
lradius 73.7755
lwrist -31.7762
lhand -45.8308 57.2549
lfingers 7.12502
lthumb -18.5829 -273.613
rfemur 3.26862 2.58963 11.6762
rtibia 38.1941
rfoot -26.1642 -39.8489
rtoes -1.81425
lfemur -9.51203 -11.6983 -17.5055
ltibia 22.5397
lfoot -8.01688 -0.386572
ltoes -3.03279
2370
root -2.60883 18.4266 1.84166 -365.946 173.697 -4.37957
lowerback 4.12062 7.5441 6.7639
upperback 1.45824 10.4211 1.67252
thorax 0.101874 5.27326 -2.31662
lowerneck -10.6352 6.36161 2.81464
upperneck 33.5003 4.16447 5.96137
head 12.881 2.05843 2.19694
rclavicle 3.44891e-014 5.24792e-014
rhumerus 406.035 38.3758 -414.851
rradius 55.0705
rwrist 41.9069
rhand -47.6504 -6.20458
rfingers 7.12502
rthumb -20.3324 -35.1602
lclavicle 3.44891e-014 5.24792e-014
lhumerus 2.82459 9.8875 41.2082
lradius 72.0301
lwrist -31.4607
lhand -45.9926 58.3902
lfingers 7.12502
lthumb -18.7386 -272.492
rfemur 3.01596 2.16343 11.1888
rtibia 39.2112
rfoot -25.4051 -39.3163
rtoes -1.87065
lfemur -9.29521 -11.7862 -17.8674
ltibia 22.4462
lfoot -8.13704 -0.837473
ltoes -1.50763
2371
root -2.64066 18.4281 1.80848 -366.064 174.17 -4.39768
lowerback 4.33178 7.52419 6.68429
upperback 1.37213 10.4061 1.57614
thorax -0.101322 5.25539 -2.41213
lowerneck -10.5458 6.31099 2.82149
upperneck 33.4551 4.00658 6.19387
head 12.8421 2.01533 2.25896
rclavicle -4.25399e-014 -2.38542e-014
rhumerus 406.165 38.1388 -415.339
rradius 54.0762
rwrist 41.2377
rhand -46.9783 -9.70449
rfingers 7.12502
rthumb -19.6864 -38.7277
lclavicle -4.25399e-014 -2.38542e-014
lhumerus 3.83338 9.45542 41.0151
lradius 70.5023
lwrist -31.2305
lhand -45.8488 58.3568
lfingers 7.12502
lthumb -18.6003 -272.512
rfemur 2.65686 1.77637 10.8621
rtibia 40.2998
rfoot -24.6117 -38.599
rtoes -3.0885
lfemur -9.07468 -11.8476 -18.0819
ltibia 22.389
lfoot -8.26167 -1.24459
ltoes -2.07021
2372
root -2.67094 18.4291 1.77956 -366.196 174.615 -4.33322
lowerback 4.58976 7.49348 6.67848
upperback 1.34107 10.3848 1.5039
thorax -0.265516 5.23842 -2.52323
lowerneck -10.5183 6.24483 2.82827
upperneck 33.3127 3.86025 6.39878
head 12.7761 1.98205 2.31192
rclavicle 1.28216e-014 -2.38542e-014
rhumerus 405.91 37.4729 -416.597
rradius 52.8917
rwrist 41.6022
rhand -46.4525 -9.76378
rfingers 7.12502
rthumb -19.1809 -38.8379
lclavicle 1.28216e-014 -2.38542e-014
lhumerus 4.73863 9.04524 40.7308
lradius 69.1697
lwrist -31.0569
lhand -45.6022 57.8682
lfingers 7.12502
lthumb -18.3631 -272.979
rfemur 2.2587 1.45794 10.6575
rtibia 41.451
rfoot -23.3275 -38.4083
rtoes -2.55184
lfemur -8.89894 -11.893 -18.1909
ltibia 22.4069
lfoot -8.48214 -1.68552
ltoes -3.3322
2373
root -2.69687 18.4299 1.75332 -366.28 175 -4.28125
lowerback 4.81446 7.45005 6.56269
upperback 1.345 10.3398 1.47663
thorax -0.404989 5.21155 -2.5241
lowerneck -10.6825 6.23681 2.78747
upperneck 33.2911 3.80881 6.57851
head 12.7979 1.98553 2.38761
rclavicle -2.13694e-014 6.83819e-014
rhumerus 405.772 36.9741 -417.613
rradius 52.059
rwrist 41.7828
rhand -46.1679 -9.70032
rfingers 7.12502
rthumb -18.9071 -38.8014
lclavicle -2.13694e-014 6.83819e-014
lhumerus 5.52003 8.88626 40.5367
lradius 67.9745
lwrist -31.1997
lhand -45.6018 57.3724
lfingers 7.12502
lthumb -18.3627 -273.474
rfemur 1.74074 1.15191 10.4492
rtibia 42.6674
rfoot -21.7311 -38.3103
rtoes -0.934982
lfemur -8.84309 -11.788 -18.2772
ltibia 22.5102
lfoot -8.56688 -2.17391
ltoes -3.65752
2374
root -2.72761 18.4271 1.72492 -366.358 175.363 -4.41251
lowerback 4.9654 7.42129 6.34971
upperback 1.39366 10.2959 1.36055
thorax -0.457348 5.18795 -2.54768
lowerneck -10.847 6.24502 2.85348
upperneck 33.2243 3.80335 6.64943
head 12.8068 2.01255 2.4085
rclavicle 7.68303e-014 4.6118e-014
rhumerus 406.398 36.8714 -417.014
rradius 51.9272
rwrist 40.6963
rhand -46.5517 -9.63695
rfingers 7.12502
rthumb -19.2763 -38.7016
lclavicle 7.68303e-014 4.6118e-014
lhumerus 6.30428 8.86803 40.3467
lradius 66.8667
lwrist -31.5668
lhand -45.5906 56.7178
lfingers 7.12502
lthumb -18.3519 -274.128
rfemur 1.16183 0.846492 9.98568
rtibia 43.9453
rfoot -20.6335 -37.7599
rtoes -1.11279
lfemur -8.78832 -11.7582 -18.5921
ltibia 22.6717
lfoot -8.53584 -2.48138
ltoes -4.5557
2375
root -2.75936 18.4226 1.70231 -366.453 175.785 -4.62477
lowerback 5.18247 7.39557 6.07685
upperback 1.42152 10.2565 1.21362
thorax -0.572007 5.16372 -2.58273
lowerneck -10.7903 6.19991 3.00251
upperneck 32.9452 3.76431 6.63002
head 12.6859 2.02423 2.36051
rclavicle -3.48867e-014 1.59028e-015
rhumerus 405.558 35.9688 -419.095
rradius 50.7628
rwrist 41.9566
rhand -46.9613 -9.05482
rfingers 7.12502
rthumb -19.6701 -38.0797
lclavicle -3.48867e-014 1.59028e-015
lhumerus 7.0589 8.75984 40.1129
lradius 65.9316
lwrist -31.9403
lhand -45.4851 56.1003
lfingers 7.12502
lthumb -18.2504 -274.736
rfemur 0.535876 0.588028 9.44335
rtibia 45.2762
rfoot -19.5905 -37.2061
rtoes -1.15494
lfemur -8.72404 -11.8591 -18.986
ltibia 22.8607
lfoot -8.70706 -2.85204
ltoes -5.57295
2376
root -2.78624 18.4196 1.68319 -366.527 176.203 -4.70102
lowerback 5.39039 7.34387 5.8038
upperback 1.45327 10.1876 1.18995
thorax -0.702817 5.1261 -2.49184
lowerneck -10.6138 6.13905 3.05581
upperneck 32.5204 3.75691 6.60775
head 12.4741 2.03984 2.32308
rclavicle -4.64162e-014 -2.38542e-014
rhumerus 405.411 35.5686 -419.593
rradius 50.4982
rwrist 42.014
rhand -46.8057 -8.03902
rfingers 7.12502
rthumb -19.5205 -37.0791
lclavicle -4.64162e-014 -2.38542e-014
lhumerus 7.51413 8.53536 39.774
lradius 65.3531
lwrist -32.135
lhand -45.5836 56.0457
lfingers 7.12502
lthumb -18.3451 -274.799
rfemur -0.147456 0.402647 9.12805
rtibia 46.6286
rfoot -18.3626 -36.8483
rtoes 0.775693
lfemur -8.72588 -11.9511 -19.1836
ltibia 23.0416
lfoot -8.92583 -3.35913
ltoes -5.63621
